# xmcd
#
# Track frame offsets:
#	150
#	17940
#	49852
#	73224
#	90614
#	112105
#	128788
#	142824
#	165016
#	175700
#	192246
#	202048
#	223051
#	251458
#	276182
#	299973
#	322108
#
# Disc length: 4567 seconds
#
# Revision: 0
# Processed by: cddbd v1.5.2PL0 Copyright (c) Steve Scherf et al.
# Submitted via: audiograbber 1.83.01
#
DISCID=0c11d511
DTITLE=Cuby and The Blizzards - Collected ( disc II ) - Collected ( disc II )
DYEAR=2010
DGENRE=Blues
TTITLE0=Birk's Works
TTITLE1=Simple Plan
TTITLE2=Seasons Come And Seasons Go
TTITLE3=Backstreet
TTITLE4=Gave You My World
TTITLE5=Sometimes
TTITLE6=Distant Smile
TTITLE7=Perfection
TTITLE8=Pigeon Girl
TTITLE9=Perfect Song
TTITLE10=(There Ain't No Real) Perfecti
TTITLE11=Maybe We'll Need Another War
TTITLE12=Bad News
TTITLE13=Geronimo Weeps
TTITLE14=City Soldier
TTITLE15=The Legend
TTITLE16=Can You Tell Me What Love Is
EXTD=
EXTT0=
EXTT1=
EXTT2=
EXTT3=
EXTT4=
EXTT5=
EXTT6=
EXTT7=
EXTT8=
EXTT9=
EXTT10=
EXTT11=
EXTT12=
EXTT13=
EXTT14=
EXTT15=
EXTT16=
PLAYORDER=
